# xmcd
#
# Track frame offsets:
#	150
#	12287
#	24387
#	37365
#	49717
#	62522
#	75105
#	88554
#	99242
#	111912
#
# Disc length: 1654 seconds
#
# Revision: 1
# Processed by: cddbd v1.4PL0 Copyright (c) Steve Scherf et al.
# Submitted via: audiograbber 1.81.03
#
DISCID=6c06740a
DTITLE=Merle Haggard - Okie From Muskogee
DYEAR=1995
DGENRE=Country
TTITLE0=Okie From Muskogee
TTITLE1=I Take A Lot Of Pride In What I Am
TTITLE2=The Way I Am
TTITLE3=Roots Of My Raising
TTITLE4=Sing Me Back Home
TTITLE5=Silver Wings
TTITLE6=Cherokee Maiden
TTITLE7=Old Man From The Mountain
TTITLE8=I've Never Cheated On You (Bonus) - Mike Lunsford
TTITLE9=Karen Honey (Bonus) - Mike Lunsford
EXTD=
EXTT0=
EXTT1=
EXTT2=
EXTT3=
EXTT4=
EXTT5=
EXTT6=
EXTT7=
EXTT8=
EXTT9=
PLAYORDER=
